<?xml version="1.0" standalone="no"?>
<!DOCTYPE svg PUBLIC "-//W3C//DTD SVG 20010904//EN"
 "http://www.w3.org/TR/2001/REC-SVG-20010904/DTD/svg10.dtd">
<svg version="1.0" xmlns="http://www.w3.org/2000/svg"
 width="260.000000pt" height="260.000000pt" viewBox="0 0 260.000000 260.000000"
 preserveAspectRatio="xMidYMid meet">
<metadata>
Created by potrace 1.11, written by Peter Selinger 2001-2013
</metadata>
<g transform="translate(0.000000,260.000000) scale(0.100000,-0.100000)"
fill="#000000" stroke="none">
<path d="M0 1300 l0 -1300 1300 0 1300 0 0 1300 0 1300 -1300 0 -1300 0 0
-1300z m1110 880 l0 -60 65 0 65 0 0 -125 0 -125 -65 0 -65 0 0 -65 0 -65
-125 0 -125 0 0 -60 0 -60 -60 0 -60 0 0 -65 0 -65 185 0 185 0 0 65 0 65 65
0 65 0 0 -125 0 -125 -315 0 -315 0 0 125 0 125 65 0 65 0 0 60 0 60 60 0 60
0 0 65 0 65 125 0 125 0 0 125 0 125 -185 0 -185 0 0 -65 0 -65 -65 0 -65 0 0
65 0 65 65 0 65 0 0 60 0 60 185 0 185 0 0 -60z m750 0 l0 -60 65 0 65 0 0
-315 0 -315 -65 0 -65 0 0 -60 0 -60 -185 0 -185 0 0 60 0 60 -65 0 -65 0 0
315 0 315 65 0 65 0 0 60 0 60 185 0 185 0 0 -60z m-620 -1395 l0 -435 -65 0
-65 0 0 125 0 125 -250 0 -250 0 0 125 0 125 65 0 65 0 0 60 0 60 60 0 60 0 0
65 0 65 65 0 65 0 0 60 0 60 125 0 125 0 0 -435z m750 250 l0 -185 -65 0 -65
0 0 -65 0 -65 -60 0 -60 0 0 -185 0 -185 -65 0 -65 0 0 185 0 185 65 0 65 0 0
65 0 65 60 0 60 0 0 125 0 125 -185 0 -185 0 0 -65 0 -65 -65 0 -65 0 0 125 0
125 315 0 315 0 0 -185z"/>
<path d="M1490 1930 l0 -190 60 0 60 0 0 -60 0 -60 -60 0 -60 0 0 -65 0 -65
185 0 185 0 0 190 0 190 -60 0 -60 0 0 60 0 60 60 0 60 0 0 65 0 65 -185 0
-185 0 0 -190z m250 -125 l0 -65 -65 0 -65 0 0 65 0 65 65 0 65 0 0 -65z"/>
<path d="M990 1035 l0 -65 -65 0 -65 0 0 -60 0 -60 -60 0 -60 0 0 -65 0 -65
185 0 185 0 0 190 0 190 -60 0 -60 0 0 -65z"/>
</g>
</svg>
