<?xml version="1.0" encoding="UTF-8" standalone="no"?>
<!-- Created with Inkscape (http://www.inkscape.org/) -->

<svg
   xmlns:dc="http://purl.org/dc/elements/1.1/"
   xmlns:cc="http://creativecommons.org/ns#"
   xmlns:rdf="http://www.w3.org/1999/02/22-rdf-syntax-ns#"
   xmlns:svg="http://www.w3.org/2000/svg"
   xmlns="http://www.w3.org/2000/svg"
   xmlns:sodipodi="http://sodipodi.sourceforge.net/DTD/sodipodi-0.dtd"
   xmlns:inkscape="http://www.inkscape.org/namespaces/inkscape"
   width="16"
   height="16"
   viewBox="0 0 4.2333331 4.2333334"
   version="1.1"
   id="svg4656"
   inkscape:version="0.92.4 (5da689c313, 2019-01-14)"
   sodipodi:docname="safari.inkscape.svg"
   inkscape:export-filename="safari.png"
   inkscape:export-xdpi="96"
   inkscape:export-ydpi="96">
  <defs
     id="defs4650" />
  <sodipodi:namedview
     id="base"
     pagecolor="#ffffff"
     bordercolor="#666666"
     borderopacity="1.0"
     inkscape:pageopacity="0.0"
     inkscape:pageshadow="2"
     inkscape:zoom="28.284271"
     inkscape:cx="-11.487067"
     inkscape:cy="9.27516"
     inkscape:document-units="px"
     inkscape:current-layer="layer1"
     showgrid="true"
     inkscape:pagecheckerboard="true"
     units="px"
     inkscape:window-width="1920"
     inkscape:window-height="1001"
     inkscape:window-x="-9"
     inkscape:window-y="-9"
     inkscape:window-maximized="1"
     showguides="true"
     inkscape:guide-bbox="true"
     inkscape:snap-grids="true">
    <inkscape:grid
       type="xygrid"
       id="grid812" />
    <sodipodi:guide
       position="2.1166666,0"
       orientation="1,0"
       id="guide816"
       inkscape:locked="false"
       inkscape:label=""
       inkscape:color="rgb(255,0,0)" />
    <sodipodi:guide
       position="0,2.1166666"
       orientation="0,1"
       id="guide818"
       inkscape:locked="false"
       inkscape:label=""
       inkscape:color="rgb(255,0,0)" />
  </sodipodi:namedview>
  <metadata
     id="metadata4653">
    <rdf:RDF>
      <cc:Work
         rdf:about="">
        <dc:format>image/svg+xml</dc:format>
        <dc:type
           rdf:resource="http://purl.org/dc/dcmitype/StillImage" />
        <dc:title />
      </cc:Work>
    </rdf:RDF>
  </metadata>
  <g
     inkscape:label="Background"
     inkscape:groupmode="layer"
     id="layer1"
     transform="translate(0,-292.76664)">
    <path
       style="fill:#000000;fill-opacity:1;stroke-width:0.01632654"
       d="M 0 0 L 0 16 L 16 16 L 16 0 L 0 0 z M 3 1 L 6 1 L 6 2 L 7 2 L 7 4 L 6 4 L 6 5 L 3 5 L 3 6 L 7 6 L 7 7 L 2 7 L 2 5 L 3 5 L 3 4 L 6 4 L 6 2 L 3 2 L 3 3 L 2 3 L 2 2 L 3 2 L 3 1 z M 10 1 L 13 1 L 13 2 L 14 2 L 14 6 L 13 6 L 13 7 L 10 7 L 10 6 L 9 6 L 9 2 L 10 2 L 10 1 z M 10 2 L 10 6 L 13 6 L 13 2 L 10 2 z M 5 9 L 6 9 L 6 13 L 7 13 L 7 14 L 6 14 L 6 15 L 5 15 L 5 14 L 2 14 L 2 12 L 3 12 L 3 11 L 4 11 L 4 10 L 5 10 L 5 9 z M 4 11 L 4 12 L 3 12 L 3 13 L 5 13 L 5 11 L 4 11 z M 9 9 L 14 9 L 14 11 L 13 11 L 13 12 L 12 12 L 12 13 L 11 13 L 11 15 L 10 15 L 10 13 L 11 13 L 11 12 L 12 12 L 12 11 L 13 11 L 13 10 L 9 10 L 9 9 z "
       transform="matrix(0.26458333,0,0,0.26458333,0,292.76664)"
       id="rect814" />
  </g>
  <g
     inkscape:groupmode="layer"
     id="layer5"
     inkscape:label="Bottom Right"
     transform="translate(0,-266.69999)"
     sodipodi:insensitive="true"
     style="display:none" />
  <g
     inkscape:groupmode="layer"
     id="layer4"
     inkscape:label="Bottom Left"
     transform="translate(0,-266.69999)"
     sodipodi:insensitive="true"
     style="display:none" />
  <g
     inkscape:groupmode="layer"
     id="layer3"
     inkscape:label="Top Right"
     transform="translate(0,-266.69999)"
     sodipodi:insensitive="true"
     style="display:none" />
  <g
     inkscape:groupmode="layer"
     id="layer2"
     inkscape:label="Top Left"
     transform="translate(0,-266.69999)"
     sodipodi:insensitive="true"
     style="display:none">
    <text
       xml:space="preserve"
       style="font-style:normal;font-variant:normal;font-weight:normal;font-stretch:normal;font-size:3.17499995px;line-height:1.25;font-family:Unifont;-inkscape-font-specification:Unifont;letter-spacing:0px;word-spacing:0px;fill:#000000;fill-opacity:1;stroke:none;stroke-width:0.26458332"
       x="0.26458332"
       y="267.49374"
       id="text826"><tspan
         sodipodi:role="line"
         id="tspan824"
         x="0.26458332"
         y="270.66873"
         style="stroke-width:0.26458332" /></text>
    <path
       inkscape:connector-curvature="0"
       id="path831"
       style="font-style:normal;font-variant:normal;font-weight:normal;font-stretch:normal;font-size:2.11666656px;line-height:1.25;font-family:Chava;-inkscape-font-specification:Chava;letter-spacing:0px;word-spacing:0px;fill:#f7fafc;fill-opacity:1;stroke:none;stroke-width:0.27560762"
       d="M 0.79375014,267.22916 H 1.5875 v -0.26458 H 0.79375014 Z m -0.26458333,0.26459 h 0.26458333 v -0.26459 H 0.52916681 Z M 1.5875,267.75833 h 0.2645833 v -0.52917 H 1.5875 Z m -0.79374986,0 v 0.26458 H 1.5875 v -0.26458 z m -0.26458333,0.79375 H 1.8520833 V 268.2875 H 0.79375014 v -0.26459 H 0.52916681 Z" />
    <path
       inkscape:connector-curvature="0"
       id="path833"
       style="font-style:normal;font-variant:normal;font-weight:normal;font-stretch:normal;font-size:2.11666656px;line-height:1.25;font-family:Chava;-inkscape-font-specification:Chava;letter-spacing:0px;word-spacing:0px;fill:#f7fafc;fill-opacity:1;stroke:none;stroke-width:0.27560762"
       d="m 2.6458333,267.22916 h 0.79375 v -0.26458 h -0.79375 z m -0.2645832,1.05834 h 0.2645832 v -1.05834 H 2.3812501 Z m 1.0583332,0 h 0.2645833 v -1.05834 H 3.4395833 Z m -0.79375,0.26458 h 0.79375 v -0.26458 h -0.79375 z" />
    <path
       inkscape:connector-curvature="0"
       id="path835"
       style="font-style:normal;font-variant:normal;font-weight:normal;font-stretch:normal;font-size:2.11666656px;line-height:1.25;font-family:Chava;-inkscape-font-specification:Chava;letter-spacing:0px;word-spacing:0px;fill:#f7fafc;fill-opacity:1;stroke:none;stroke-width:0.27560762"
       d="M 0.52916661,270.40416 H 1.3229166 v 0.26458 h 0.2645833 v -0.26458 h 0.2645832 v -0.26459 H 1.5874999 v -1.05833 H 1.3229166 v 0.26458 H 1.0583333 v 0.26459 h 0.2645833 v 0.52916 H 0.79374994 v -0.26458 H 0.52916661 Z m 0.26458333,-0.52917 H 1.0583333 v -0.26458 H 0.79374994 Z" />
    <path
       inkscape:connector-curvature="0"
       id="path837"
       style="font-style:normal;font-variant:normal;font-weight:normal;font-stretch:normal;font-size:2.11666656px;line-height:1.25;font-family:Chava;-inkscape-font-specification:Chava;letter-spacing:0px;word-spacing:0px;fill:#f7fafc;fill-opacity:1;stroke:none;stroke-width:0.27560762"
       d="m 2.3812501,269.34582 h 1.0583332 v 0.26459 h 0.2645833 v -0.52917 H 2.3812501 Z m 0.79375,0.52917 h 0.2645832 v -0.26458 H 3.1750001 Z m -0.2645833,0.26458 h 0.2645833 v -0.26458 H 2.9104168 Z m -0.2645834,0.52917 h 0.2645834 v -0.52917 H 2.6458334 Z" />
  </g>
</svg>
